<svg width="40" height="40" viewBox="0 0 40 40" fill="none" xmlns="http://www.w3.org/2000/svg">
<g id="jam:filter-f">
<path id="Vector" d="M6.80003 5.59668H33.2C33.5139 5.59688 33.8214 5.68572 34.0871 5.85298C34.3527 6.02025 34.5657 6.25913 34.7015 6.54213C34.8374 6.82513 34.8905 7.14073 34.8549 7.45261C34.8192 7.76449 34.6962 8.05997 34.5 8.30501L23.7 21.8067C23.463 22.1021 23.3337 22.4695 23.3334 22.8483V31.43C23.3334 31.6888 23.2731 31.9439 23.1574 32.1754C23.0417 32.4068 22.8737 32.6081 22.6667 32.7634L19.3334 35.2634C19.0857 35.4491 18.7913 35.5622 18.483 35.59C18.1748 35.6177 17.8648 35.5592 17.588 35.4207C17.3112 35.2823 17.0783 35.0695 16.9156 34.8062C16.7529 34.5429 16.6667 34.2395 16.6667 33.93V22.8467C16.666 22.4685 16.5367 22.1017 16.3 21.8067L5.50003 8.30501C5.30383 8.05997 5.18083 7.76449 5.14518 7.45261C5.10953 7.14073 5.16269 6.82513 5.29853 6.54213C5.43437 6.25913 5.64737 6.02025 5.913 5.85298C6.17864 5.68572 6.48612 5.59688 6.80003 5.59668Z" fill="#E25E3E"/>
</g>
</svg>
