<svg width="30" height="31" viewBox="0 0 30 31" fill="none" xmlns="http://www.w3.org/2000/svg">
<path d="M1.7999 0.59668H28.1999C28.5138 0.596876 28.8213 0.68572 29.0869 0.852984C29.3526 1.02025 29.5656 1.25913 29.7014 1.54213C29.8372 1.82513 29.8904 2.14073 29.8548 2.45261C29.8191 2.76449 29.6961 3.05997 29.4999 3.30501L18.6999 16.8067C18.4629 17.1021 18.3335 17.4695 18.3332 17.8483V26.43C18.3332 26.6888 18.273 26.9439 18.1573 27.1754C18.0416 27.4068 17.8736 27.6081 17.6666 27.7634L14.3332 30.2634C14.0856 30.4491 13.7912 30.5622 13.4829 30.59C13.1746 30.6177 12.8647 30.5592 12.5879 30.4207C12.311 30.2823 12.0782 30.0695 11.9155 29.8062C11.7528 29.5429 11.6666 29.2395 11.6666 28.93V17.8467C11.6659 17.4685 11.5366 17.1017 11.2999 16.8067L0.499904 3.30501C0.30371 3.05997 0.180708 2.76449 0.14506 2.45261C0.109412 2.14073 0.162567 1.82513 0.298407 1.54213C0.434246 1.25913 0.647245 1.02025 0.912882 0.852984C1.17852 0.68572 1.48599 0.596876 1.7999 0.59668Z" fill="#E25E3E"/>
</svg>
