<svg width="47" height="47" viewBox="0 0 47 47" fill="none" xmlns="http://www.w3.org/2000/svg">
<g id="&#240;&#159;&#166;&#134; icon &#34;orange spain&#34;">
<path id="Vector" d="M26.6692 47C37.4748 47 46.2344 38.2403 46.2344 27.4348C46.2344 16.6292 37.4748 7.86957 26.6692 7.86957C15.8636 7.86957 7.104 16.6292 7.104 27.4348C7.104 38.2403 15.8636 47 26.6692 47Z" fill="#E5EFEF"/>
<path id="Vector_2" d="M18.5879 44.448C27.7491 44.448 35.1758 37.0213 35.1758 27.8601C35.1758 18.6988 27.7491 11.2722 18.5879 11.2722C9.42666 11.2722 2 18.6988 2 27.8601C2 37.0213 9.42666 44.448 18.5879 44.448Z" fill="#FC8C29" stroke="#4C241D" stroke-width="2.5" stroke-linecap="round" stroke-linejoin="round"/>
<path id="Vector_3" d="M41.9811 37.6427V39.344" stroke="#4C241D" stroke-width="2.5" stroke-linecap="round" stroke-linejoin="round"/>
<path id="Vector_4" d="M41.9811 42.7467V44.448" stroke="#4C241D" stroke-width="2.5" stroke-linecap="round" stroke-linejoin="round"/>
<path id="Vector_5" d="M38.5784 41.0453H40.2798" stroke="#4C241D" stroke-width="2.5" stroke-linecap="round" stroke-linejoin="round"/>
<path id="Vector_6" d="M43.6824 41.0453H45.3838" stroke="#4C241D" stroke-width="2.5" stroke-linecap="round" stroke-linejoin="round"/>
<path id="Vector_7" d="M44.6031 27.1515C44.6035 27.3314 44.5504 27.5074 44.4507 27.6572C44.351 27.8069 44.2091 27.9238 44.043 27.9928C43.8768 28.0619 43.6939 28.0802 43.5174 28.0453C43.3409 28.0104 43.1787 27.9239 43.0514 27.7968C42.924 27.6697 42.8372 27.5077 42.802 27.3312C42.7668 27.1548 42.7847 26.9719 42.8535 26.8056C42.9223 26.6393 43.0388 26.4972 43.1884 26.3972C43.338 26.2972 43.5139 26.2438 43.6938 26.2438C43.9346 26.2441 44.1655 26.3397 44.3359 26.5098C44.5064 26.6799 44.6025 26.9107 44.6031 27.1515Z" fill="#4C241D"/>
<g id="Group">
<path id="Vector_8" d="M36.4095 12.1433C33.5742 15.2797 26.5486 15.4404 26.5486 15.4404C26.5486 15.4404 26.0025 8.4344 28.8377 5.29801C31.673 2.16163 38.6994 2 38.6994 2C38.6994 2 39.2456 9.0069 36.4095 12.1433Z" fill="#A9BA5A" stroke="#4C241D" stroke-width="2.5" stroke-linecap="round" stroke-linejoin="round"/>
<path id="Vector_9" d="M34.3002 12.4351C30.9469 12.0421 26.6442 15.6404 26.6442 15.6404C26.6442 15.6404 30.0001 20.1378 33.3534 20.5308C36.7067 20.9238 41.0093 17.3247 41.0093 17.3247C41.0093 17.3247 37.6535 12.8281 34.3002 12.4351Z" fill="#77A052" stroke="#4C241D" stroke-width="2.5" stroke-linecap="round" stroke-linejoin="round"/>
<path id="Vector_10" d="M7.49797 26.442C7.40903 26.1773 7.37312 25.8976 7.39228 25.619C7.41144 25.3403 7.48529 25.0682 7.60962 24.8181C7.73396 24.568 7.90634 24.3449 8.11691 24.1614C8.32749 23.9779 8.57215 23.8378 8.83691 23.7488" stroke="#4C241D" stroke-width="2.5" stroke-linecap="round" stroke-linejoin="round"/>
<path id="Vector_11" d="M12.9165 37.6742C12.6518 37.7631 12.3721 37.799 12.0935 37.7799C11.8148 37.7607 11.5427 37.6869 11.2926 37.5625C11.0425 37.4382 10.8194 37.2658 10.6359 37.0552C10.4524 36.8446 10.3122 36.6 10.2233 36.3352" stroke="#4C241D" stroke-width="2.5" stroke-linecap="round" stroke-linejoin="round"/>
<path id="Vector_12" d="M26.1741 35.0252C26.1919 35.304 26.1546 35.5834 26.0643 35.8477C25.9741 36.1121 25.8326 36.356 25.6481 36.5656C25.4636 36.7753 25.2396 36.9465 24.9889 37.0696C24.7382 37.1927 24.4657 37.2651 24.187 37.2829" stroke="#4C241D" stroke-width="2.5" stroke-linecap="round" stroke-linejoin="round"/>
<path id="Vector_13" d="M8.37996 17.2269C11.9035 17.2269 14.7599 14.3705 14.7599 10.8469C14.7599 7.32335 11.9035 4.46695 8.37996 4.46695C4.85641 4.46695 2 7.32335 2 10.8469C2 14.3705 4.85641 17.2269 8.37996 17.2269Z" fill="#F53E28" stroke="#4C241D" stroke-width="2.5" stroke-linecap="round" stroke-linejoin="round"/>
<path id="Vector_14" d="M2 10.8469C1.99921 11.8848 2.25304 12.9071 2.73923 13.8242H14.0207C14.5061 12.9069 14.7599 11.8847 14.7599 10.8469C14.7599 9.80902 14.5061 8.7869 14.0207 7.86957H2.73923C2.25304 8.78662 1.99921 9.80892 2 10.8469Z" fill="#FFCE56" stroke="#4C241D" stroke-width="2.5" stroke-linecap="round" stroke-linejoin="round"/>
</g>
</g>
</svg>
